<svg width="500" height="500" viewBox="0 0 500 500" fill="none" xmlns="http://www.w3.org/2000/svg">
<rect width="500" height="500" rx="250" fill="url(#paint0_linear_238_9)"/>
<path d="M192.525 151.497C197.7 152.489 202.536 155.867 206.835 161.605C211.147 167.359 214.793 175.335 217.509 185.083C222.939 204.571 224.496 230.568 220.751 258.397C217.005 286.225 208.703 310.333 198.432 326.812C193.294 335.055 187.739 341.268 182.133 345.122C176.544 348.965 171.065 350.367 165.89 349.376C160.715 348.384 155.879 345.006 151.58 339.268C147.268 333.514 143.622 325.538 140.906 315.79C135.476 296.303 133.918 270.306 137.664 242.477C141.41 214.649 149.712 190.541 159.983 174.061C165.121 165.818 170.676 159.605 176.282 155.751C181.871 151.908 187.35 150.506 192.525 151.497Z" stroke="white" stroke-width="6"/>
<path d="M333.11 151.497C338.285 152.489 343.121 155.867 347.421 161.605C351.733 167.359 355.378 175.335 358.094 185.083C363.524 204.571 365.082 230.568 361.336 258.397C357.59 286.225 349.288 310.333 339.017 326.812C333.879 335.055 328.324 341.268 322.719 345.122C317.13 348.965 311.65 350.367 306.475 349.376C301.3 348.384 296.464 345.006 292.165 339.268C287.853 333.514 284.208 325.538 281.491 315.79C276.061 296.303 274.504 270.306 278.25 242.477C281.995 214.649 290.297 190.541 300.568 174.061C305.706 165.818 311.262 159.605 316.867 155.751C322.456 151.908 327.935 150.506 333.11 151.497Z" stroke="white" stroke-width="6"/>
<ellipse cx="27.1048" cy="41.8571" rx="27.1048" ry="41.8571" transform="matrix(0.991418 0.130729 -0.0922412 0.995737 309.391 214.89)" fill="white"/>
<ellipse cx="27.1048" cy="41.8571" rx="27.1048" ry="41.8571" transform="matrix(0.991418 0.130729 -0.0922412 0.995737 168.815 214.89)" fill="white"/>
<defs>
<linearGradient id="paint0_linear_238_9" x1="250" y1="0" x2="250" y2="500" gradientUnits="userSpaceOnUse">
<stop stop-color="#0ABAB5"/>
<stop offset="1" stop-color="#005F82"/>
</linearGradient>
</defs>
</svg>
